HIERARCHY
ROOT root
{
	OFFSET	0	13.1	24.9
	CHANNELS 6  Xposition Yposition Zposition Xrotation Yrotation Zrotation
	JOINT spine_1
	{
		OFFSET	0	9.99999	0
		CHANNELS 3  Xrotation Yrotation Zrotation
		JOINT spine_2
		{
			OFFSET	0	112	-10
			CHANNELS 3  Xrotation Yrotation Zrotation
			JOINT spine_3
			{
				OFFSET	0	206.5	19.3
				CHANNELS 3  Xrotation Yrotation Zrotation
				JOINT spine_4
				{
					OFFSET	0	110.4	14.6
					CHANNELS 3  Xrotation Yrotation Zrotation
					JOINT neck_1
					{
						OFFSET	0	71.8	-50.3
						CHANNELS 3  Xrotation Yrotation Zrotation
						JOINT neck_2
						{
							OFFSET	0	86.2	-25.8
							CHANNELS 3  Xrotation Yrotation Zrotation
							JOINT head_ee
							{
								OFFSET	0	179.8	-8.7
								CHANNELS 3  Xrotation Yrotation Zrotation
								End Site
								{
									OFFSET	1	0	0
								}
							}
						}
					}
					JOINT left_clavicle
					{
						OFFSET	-43.2	22.4	-70.8
						CHANNELS 3  Xrotation Yrotation Zrotation
						JOINT left_shoulder
						{
							OFFSET	-93.9	-5.79999	48.7
							CHANNELS 3  Xrotation Yrotation Zrotation
							JOINT left_elbow
							{
								OFFSET	-291.4	-30.8	15.2
								CHANNELS 3  Xrotation Yrotation Zrotation
								JOINT left_lowarm_twist
								{
									OFFSET	-110.7	-3.89999	13.6
									CHANNELS 3  Xrotation Yrotation Zrotation
									JOINT left_hand
									{
										OFFSET	-110.7	-3.89999	13.6
										CHANNELS 3  Xrotation Yrotation Zrotation
										JOINT left_ee
										{
											OFFSET	-80.8	-5.10001	12.1
											CHANNELS 3  Xrotation Yrotation Zrotation
											End Site
											{
												OFFSET	1	0	0
											}
										}
									}
								}
							}
						}
					}
					JOINT right_clavicle
					{
						OFFSET	43.2	22.4	-70.8
						CHANNELS 3  Xrotation Yrotation Zrotation
						JOINT right_shoulder
						{
							OFFSET	93.9	-5.79999	48.7
							CHANNELS 3  Xrotation Yrotation Zrotation
							JOINT right_elbow
							{
								OFFSET	291.4	-30.8	15.2
								CHANNELS 3  Xrotation Yrotation Zrotation
								JOINT right_lowarm_twist
								{
									OFFSET	110.7	-3.89999	13.6
									CHANNELS 3  Xrotation Yrotation Zrotation
									JOINT right_hand
									{
										OFFSET	110.7	-3.89999	13.6
										CHANNELS 3  Xrotation Yrotation Zrotation
										JOINT right_ee
										{
											OFFSET	80.8	-5.10001	12.1
											CHANNELS 3  Xrotation Yrotation Zrotation
											End Site
											{
												OFFSET	1	0	0
											}
										}
									}
								}
							}
						}
					}
				}
			}
		}
	}
	JOINT left_hip
	{
		OFFSET	-82.8	-127.5	0.300001
		CHANNELS 3  Xrotation Yrotation Zrotation
		JOINT left_knee
		{
			OFFSET	-28.2	-396.7	2.2
			CHANNELS 3  Xrotation Yrotation Zrotation
			JOINT left_ankle
			{
				OFFSET	-11.7	-411.3	35.4
				CHANNELS 3  Xrotation Yrotation Zrotation
				JOINT left_toes
				{
					OFFSET	0	-60	-88.6
					CHANNELS 3  Xrotation Yrotation Zrotation
					JOINT left_foot_ee
					{
						OFFSET	-22.5	-16.5	-42.2
						CHANNELS 3  Xrotation Yrotation Zrotation
						End Site
						{
							OFFSET	1	0	0
						}
					}
				}
			}
		}
	}
	JOINT right_hip
	{
		OFFSET	82.8	-127.5	0.300001
		CHANNELS 3  Xrotation Yrotation Zrotation
		JOINT right_knee
		{
			OFFSET	28.2	-396.7	2.2
			CHANNELS 3  Xrotation Yrotation Zrotation
			JOINT right_ankle
			{
				OFFSET	11.7	-411.3	35.4
				CHANNELS 3  Xrotation Yrotation Zrotation
				JOINT right_toes
				{
					OFFSET	0	-60	-88.6
					CHANNELS 3  Xrotation Yrotation Zrotation
					JOINT right_foot_ee
					{
						OFFSET	22.5	-16.5	-42.2
						CHANNELS 3  Xrotation Yrotation Zrotation
						End Site
						{
							OFFSET	1	0	0
						}
					}
				}
			}
		}
	}
}
MOTION
Frames: 5
Frame Time: 0.02
1963.42 700.908 -1047.95 -1.00243 50.6643 2.3377 -0.790515 -0.333595 -0.942083 -0.790063 -0.272975 -0.961399 -0.785024 -0.0511636 -0.998088 -0.786354 -0.208143 -0.977485 5.2758 17.9872 -1.68576 6.77903 32.3453 -1.53369 -0.0 0.0 -0.0 2.33337 22.7382 5.88321 9.09285 -45.3466 61.6282 3.03085 -56.3229 1.62277 -34.0345 -2.34022 3.60013 -3.68195 -0.649712 -25.7873 -0.0 0.0 -0.0 6.67842 14.6795 -12.4593 -24.1786 12.362 -66.8153 0.343877 9.66753 -0.0290804 6.20751 -0.176985 0.772787 2.17248 -22.9272 -22.328 0.0 0.0 0.0 -16.0286 0.818588 7.25886 -4.96341 0.172301 0.742012 40.556 6.1304 -4.90671 -4.20397 0.0 0.0 -0.0 0.0 -0.0 29.9068 6.47385 -9.59356 1.07206 0.0456281 0.158182 4.0204 -9.85953 0.582493 -6.48004 0.0 0.0 0.0 0.0 0.0 
1939.86 690.885 -1063.52 -1.62222 51.1317 3.12926 -0.623859 -0.367147 -0.906043 -0.623455 -0.308752 -0.927567 -0.618036 -0.0964392 -0.972831 -0.619271 -0.248863 -0.945396 7.09225 17.4411 -1.49904 8.61237 30.8009 -1.67887 -0.0 0.0 -0.0 2.09388 20.548 5.43734 8.3842 -44.5345 61.8178 2.82892 -54.4784 1.45653 -33.0404 -2.24323 3.51735 -3.2124 0.175661 -21.9153 -0.0 0.0 -0.0 7.10284 14.8817 -13.3614 -23.4633 12.3837 -66.6898 0.325027 9.14682 -0.0259994 6.29183 -0.17881 0.783403 1.71274 -22.0051 -19.1839 0.0 0.0 0.0 -16.6804 0.472197 6.77903 -6.37317 0.209449 0.955165 41.3142 6.28573 -4.97129 -1.76779 0.0 0.0 -0.0 0.0 -0.0 32.0505 7.79697 -10.9332 -3.78916 -0.13736 -0.565191 -0.859803 -5.93276 -0.126199 -6.6054 0.0 0.0 0.0 0.0 0.0 
1914.02 690.637 -1081.55 -1.43786 51.4617 3.35261 -0.638875 -0.356344 -1.08097 -0.638271 -0.286842 -1.10145 -0.632196 -0.0364109 -1.1376 -0.633937 -0.215605 -1.11757 7.73717 16.7306 -1.85322 9.22359 29.7512 -2.2058 -0.0 0.0 -0.0 1.62334 21.327 4.80275 7.28998 -43.7056 63.2835 2.72135 -53.4225 1.36956 -32.7043 -2.21077 3.48899 -2.66705 0.726966 -17.7612 -0.0 0.0 -0.0 7.51164 13.4999 -14.32 -23.1509 12.4639 -65.9343 0.310485 8.74406 -0.0237381 6.29001 -0.178771 0.783174 1.16684 -22.2391 -15.8894 0.0 0.0 0.0 -16.536 0.280127 6.14102 -11.1467 0.296088 1.68233 40.7807 9.23361 -4.93891 3.43676 -0.0 -0.0 -0.0 0.0 -0.0 33.0867 9.10894 -11.5398 -10.0644 -0.281762 -1.51688 -4.44646 0.317487 -0.664921 -6.86237 0.0 0.0 0.0 0.0 0.0 
1894.69 696.962 -1094.89 -2.13122 51.1421 4.47566 -0.513663 -0.130872 -1.21437 -0.512844 -0.0533394 -1.22023 -0.511199 0.215079 -1.20232 -0.513216 0.0225116 -1.22119 8.49445 15.6936 -2.12554 9.88195 28.0724 -2.62907 -0.0 0.0 -0.0 1.44291 21.4843 4.55511 5.81415 -42.8162 64.262 2.65847 -52.7798 1.31927 -32.4787 -2.18907 3.46984 -2.11509 1.35907 -13.6306 -0.0 0.0 -0.0 7.84551 14.4107 -14.9945 -21.688 12.8136 -65.7385 0.338102 9.50818 -0.0281185 6.61972 -0.185758 0.824712 0.761432 -22.3525 -13.4759 0.0 0.0 0.0 -14.5867 -0.14136 5.09233 -14.7247 0.321166 2.23065 40.2971 11.4993 -4.91545 7.05185 -0.0 -0.0 -0.0 0.0 -0.0 33.8873 9.95388 -12.2517 -13.6208 -0.317082 -2.06133 -4.70591 5.10352 -0.715929 -6.53814 0.0 0.0 0.0 0.0 0.0 
1870.13 696.267 -1110.09 -2.62712 51.3365 5.31943 -0.38497 -0.187113 -1.21237 -0.384159 -0.109593 -1.22182 -0.381305 0.157767 -1.21654 -0.383368 -0.0363276 -1.22619 10.329 15.4928 -2.48326 11.8342 27.6428 -3.38313 -0.0 0.0 -0.0 1.19354 22.6133 4.28478 3.58947 -42.6283 64.4059 2.57209 -51.865 1.2509 -31.5055 -2.09635 3.38628 -1.90017 1.36457 -12.1598 -0.0 0.0 -0.0 7.9256 14.4192 -15.1678 -20.7682 13.9089 -65.9927 0.416337 11.6536 -0.0424868 6.66901 -0.186782 0.830926 0.469345 -22.4492 -11.7647 0.0 0.0 0.0 -13.9711 -0.821514 4.45938 -16.6524 0.320474 2.5264 40.4721 12.1422 -4.93742 10.3588 -0.0 -0.0 -0.0 0.0 -0.0 34.321 10.4486 -12.9271 -16.4977 -0.320897 -2.50268 -5.85054 9.26355 -0.910569 -6.69209 0.0 0.0 0.0 0.0 0.0 
